<svg viewBox="0 0 395.52 89.69005337958208" height="89.69005337958208" width="395.52"><g><svg viewBox="0 0 531.7626441321727 120.58510299727519" height="89.69005337958208" width="395.52"><g><rect width="10.820387096637383" height="120.58510299727519" x="423.8456206718256" y="0" fill="#e9efe7" opacity="1" stroke-width="0" stroke="transparent" fill-opacity="1" class="rect-r-0" data-fill-palette-color="primary" rx="1%" id="r-0" data-palette-color="#e9efe7"></rect></g><g transform="matrix(1,0,0,1,0,0.29996294277928826)"><svg viewBox="0 0 395.52 119.98517711171661" height="119.98517711171661" width="395.52"><g id="textblocktransform"><svg viewBox="0 0 395.52 119.98517711171661" height="119.98517711171661" width="395.52" id="textblock"><g><svg viewBox="0 0 395.52 119.98517711171661" height="119.98517711171661" width="395.52"><g transform="matrix(1,0,0,1,0,0)"><svg width="395.52" viewBox="2.25 -33 110.08999633789062 33.400001525878906" height="119.98517711171661" data-palette-color="#e9efe7"><path d="M2.25 0L2.25-0.5 2.5-0.5Q2.9-0.5 3.2-0.78 3.5-1.05 3.73-1.45 3.95-1.85 4.08-2.3 4.2-2.75 4.2-3.15L4.2-3.15 4.2-29.9Q4.2-30.25 4.08-30.7 3.95-31.15 3.73-31.55 3.5-31.95 3.2-32.23 2.9-32.5 2.5-32.5L2.5-32.5 2.25-32.5 2.25-33 9.45-33 9.45-32.5 9.2-32.5Q8.8-32.5 8.5-32.23 8.2-31.95 8-31.55 7.8-31.15 7.68-30.7 7.55-30.25 7.55-29.9L7.55-29.9 7.55-1.85 18.5-1.85Q19.45-1.85 20.15-2.3 20.85-2.75 21.33-3.43 21.8-4.1 22.03-4.88 22.25-5.65 22.25-6.3L22.25-6.3 22.75-6.3 22.75 0 2.25 0ZM45.6-10.1L28.25-10.1Q28.45-8.35 29.1-6.78 29.75-5.2 30.82-4 31.9-2.8 33.45-2.08 35-1.35 37.05-1.35L37.05-1.35Q38.15-1.35 39.37-1.68 40.6-2 41.65-2.6 42.7-3.2 43.52-4.08 44.35-4.95 44.65-6.05L44.65-6.05 45.1-6.05 45.1-2.3Q44.8-2.3 44.42-2.1 44.05-1.9 43.55-1.6L43.55-1.6Q42.55-1 40.85-0.33 39.15 0.35 36.35 0.35L36.35 0.35Q34.1 0.35 32.07-0.3 30.05-0.95 28.5-2.3 26.95-3.65 26.02-5.75 25.1-7.85 25.1-10.75L25.1-10.75Q25.1-12.6 25.72-14.5 26.35-16.4 27.62-17.93 28.9-19.45 30.9-20.4 32.9-21.35 35.7-21.35L35.7-21.35Q38.2-21.35 40.07-20.5 41.95-19.65 43.17-18.15 44.4-16.65 45-14.6 45.6-12.55 45.6-10.1L45.6-10.1ZM35.5-19.7L35.5-19.7Q33.75-19.7 32.47-19 31.2-18.3 30.3-17.2 29.4-16.1 28.9-14.7 28.4-13.3 28.25-11.9L28.25-11.9 42.5-11.9Q42.45-13.35 41.97-14.75 41.5-16.15 40.65-17.25 39.8-18.35 38.5-19.03 37.2-19.7 35.5-19.7ZM64.55-5.7L64.55-5.7Q64.55-4.4 63.9-3.3 63.25-2.2 62.12-1.38 61-0.55 59.5-0.08 58 0.4 56.25 0.4L56.25 0.4Q54.09 0.4 52.75-0.18 51.4-0.75 50.45-1.35L50.45-1.35Q49.8-1.75 49.25-2.02 48.7-2.3 48.05-2.3L48.05-2.3 48.05-6.1 48.55-6.1Q48.7-5.4 49.42-4.58 50.15-3.75 51.17-3.05 52.2-2.35 53.42-1.88 54.65-1.4 55.9-1.4L55.9-1.4Q56.8-1.4 57.75-1.6 58.7-1.8 59.47-2.25 60.25-2.7 60.77-3.38 61.3-4.05 61.3-5L61.3-5Q61.3-5.95 60.75-6.65 60.2-7.35 59.34-7.88 58.5-8.4 57.4-8.8 56.3-9.2 55.2-9.55L55.2-9.55Q53.9-9.95 52.57-10.45 51.25-10.95 50.2-11.63 49.15-12.3 48.5-13.28 47.84-14.25 47.84-15.6L47.84-15.6Q47.84-16.75 48.27-17.8 48.7-18.85 49.67-19.63 50.65-20.4 52.2-20.88 53.75-21.35 55.95-21.35L55.95-21.35Q57.9-21.35 58.97-21.03 60.05-20.7 60.75-20.35L60.75-20.35Q61.2-20.1 61.65-19.98 62.09-19.85 62.65-19.85L62.65-19.85 62.65-16.35 62.25-16.35Q61.34-18 59.5-18.85 57.65-19.7 55.7-19.7L55.7-19.7Q54.45-19.7 53.55-19.38 52.65-19.05 52.07-18.57 51.5-18.1 51.22-17.5 50.95-16.9 50.95-16.3L50.95-16.3Q50.95-15.45 51.42-14.85 51.9-14.25 52.72-13.8 53.55-13.35 54.57-12.95 55.59-12.55 56.75-12.2L56.75-12.2Q58.15-11.75 59.55-11.23 60.95-10.7 62.05-9.95 63.15-9.2 63.84-8.18 64.55-7.15 64.55-5.7ZM87.29-5.7L87.29-1.8Q86.89-1.8 86.54-1.63 86.19-1.45 85.74-1.2L85.74-1.2Q84.89-0.7 83.59-0.18 82.29 0.35 80.19 0.35L80.19 0.35Q77.64 0.35 75.47-0.48 73.29-1.3 71.72-2.78 70.14-4.25 69.27-6.23 68.39-8.2 68.39-10.5L68.39-10.5Q68.39-12.65 69.17-14.6 69.94-16.55 71.39-18.05 72.84-19.55 74.97-20.45 77.09-21.35 79.79-21.35L79.79-21.35Q81.64-21.35 82.79-20.93 83.94-20.5 84.74-20.1L84.74-20.1Q85.19-19.85 85.62-19.7 86.04-19.55 86.49-19.55L86.49-19.55 86.49-15.75 85.99-15.75Q85.74-16.7 85.09-17.43 84.44-18.15 83.59-18.65 82.74-19.15 81.74-19.4 80.74-19.65 79.79-19.65L79.79-19.65Q77.74-19.65 76.19-18.93 74.64-18.2 73.64-17.03 72.64-15.85 72.14-14.35 71.64-12.85 71.64-11.25L71.64-11.25Q71.64-9.4 72.24-7.63 72.84-5.85 73.97-4.45 75.09-3.05 76.69-2.2 78.29-1.35 80.29-1.35L80.29-1.35Q81.69-1.35 82.87-1.75 84.04-2.15 84.87-2.8 85.69-3.45 86.19-4.23 86.69-5 86.79-5.7L86.79-5.7 87.29-5.7ZM101.14 0.35L101.14 0.35Q98.64 0.35 96.64-0.48 94.64-1.3 93.22-2.73 91.79-4.15 91.02-6.1 90.24-8.05 90.24-10.35L90.24-10.35Q90.24-12.8 91.09-14.83 91.94-16.85 93.44-18.3 94.94-19.75 96.99-20.55 99.04-21.35 101.44-21.35L101.44-21.35Q103.84-21.35 105.84-20.58 107.84-19.8 109.29-18.4 110.74-17 111.54-15.08 112.34-13.15 112.34-10.85L112.34-10.85Q112.34-8.7 111.62-6.68 110.89-4.65 109.47-3.1 108.04-1.55 105.97-0.6 103.89 0.35 101.14 0.35ZM100.84-19.7L100.84-19.7Q99.04-19.6 97.67-18.82 96.29-18.05 95.36-16.82 94.44-15.6 93.97-14.05 93.49-12.5 93.49-10.9L93.49-10.9Q93.49-9.05 94.06-7.33 94.64-5.6 95.72-4.25 96.79-2.9 98.29-2.1 99.79-1.3 101.64-1.3L101.64-1.3Q103.49-1.3 104.92-2.1 106.34-2.9 107.29-4.17 108.24-5.45 108.72-7.05 109.19-8.65 109.19-10.25L109.19-10.25Q109.19-11.9 108.69-13.58 108.19-15.25 107.14-16.63 106.09-18 104.52-18.85 102.94-19.7 100.84-19.7Z" opacity="1" transform="matrix(1,0,0,1,0,0)" fill="#e9efe7" class="wordmark-text-0" data-fill-palette-color="primary" id="text-0"></path></svg></g></svg></g></svg></g></svg></g><g transform="matrix(1,0,0,1,462.9916284402886,12.898406539509523)"><svg viewBox="0 0 68.77101569188403 94.78828991825614" height="94.78828991825614" width="68.77101569188403"><g><svg xmlns="http://www.w3.org/2000/svg" xmlns:xlink="http://www.w3.org/1999/xlink" version="1.1" x="0" y="0" viewBox="17.35099983215332 5 65.29700469970703 90" enable-background="new 0 0 100 100" xml:space="preserve" height="94.78828991825614" width="68.77101569188403" class="icon-icon-0" data-fill-palette-color="accent" id="icon-0"><polygon points="82.648,5 24.364,50 41.691,50 17.351,95 75.635,50 58.311,50 " fill="#c9f06b" data-fill-palette-color="accent"></polygon></svg></g></svg></g></svg></g><defs></defs></svg>